<svg width="500" height="495" viewBox="0 0 500 495" fill="none" xmlns="http://www.w3.org/2000/svg">
<path d="M264.445 240.009C263.246 240.089 262.142 240.713 261.443 241.715L214.751 308.572C213.875 309.819 213.756 311.461 214.443 312.83C215.126 314.195 216.502 315.053 218.003 315.053H241.933L230.177 354.792C229.65 356.69 230.521 358.694 232.246 359.573C233.971 360.447 236.06 359.946 237.222 358.374L285.249 291.516C286.119 290.275 286.244 288.644 285.567 287.279C284.894 285.915 283.534 285.051 282.039 285.035H257.943L268.574 245.168C268.912 243.889 268.631 242.524 267.808 241.501C266.99 240.478 265.739 239.923 264.447 240.009L264.445 240.009ZM254.94 265.08L248.811 288.019C248.473 289.256 248.717 290.588 249.484 291.612C250.244 292.63 251.432 293.227 252.688 293.221H274.159L244.601 334.367L251.188 312.111C251.543 310.874 251.308 309.542 250.552 308.508C249.797 307.474 248.614 306.866 247.353 306.866H225.757L254.94 265.08Z" fill="white"/>
<path d="M82.1436 444.743V478H68.2666V444.743H57.6367V431.345H92.7393V444.743H82.1436ZM109.692 431.345V445.598C111.857 444.025 114.022 443.239 116.187 443.239C119.468 443.239 122.065 444.424 123.979 446.794C125.916 449.164 126.885 452.365 126.885 456.398V478H114.102V459.987C114.102 458.529 113.942 457.549 113.623 457.048C113.327 456.547 112.734 456.296 111.846 456.296C110.41 456.296 109.692 457.355 109.692 459.475V478H96.9092V431.345H109.692ZM134.37 444.401H147.153V463.645C147.153 465.581 147.962 466.55 149.58 466.55C151.175 466.55 151.973 465.581 151.973 463.645V444.401H164.756V463.405C164.756 467.826 163.286 471.563 160.347 474.616C157.407 477.647 153.807 479.162 149.546 479.162C144.692 479.162 140.785 477.396 137.822 473.864C135.521 471.107 134.37 467.279 134.37 462.38V444.401ZM202.627 478H189.844V458.757C189.844 456.797 189.035 455.817 187.417 455.817C185.822 455.817 185.024 456.797 185.024 458.757V478H172.241V458.996C172.241 454.553 173.711 450.816 176.65 447.785C179.59 444.732 183.19 443.205 187.451 443.205C192.327 443.205 196.235 444.971 199.175 448.503C201.476 451.26 202.627 455.1 202.627 460.021V478ZM231.099 431.345H243.882V459.748C243.882 464.966 242.515 469.216 239.78 472.497C238.208 474.388 236.203 475.892 233.765 477.009C231.349 478.125 228.866 478.684 226.313 478.684C221.232 478.684 216.948 476.975 213.462 473.557C209.976 470.139 208.232 465.946 208.232 460.979C208.232 456.171 209.964 452.012 213.428 448.503C216.891 444.994 220.993 443.239 225.732 443.239C226.484 443.239 227.624 443.308 229.15 443.444V457.526C228.102 456.706 227.054 456.296 226.006 456.296C224.684 456.296 223.545 456.786 222.588 457.766C221.654 458.723 221.187 459.885 221.187 461.252C221.187 462.574 221.676 463.713 222.656 464.67C223.636 465.604 224.81 466.071 226.177 466.071C229.458 466.071 231.099 463.804 231.099 459.27V431.345ZM284.146 463.029H264.766C264.469 462.049 264.321 461.149 264.321 460.329C264.321 459.19 264.526 458.073 264.937 456.979H271.431C270.975 454.45 269.551 453.186 267.158 453.186C265.563 453.186 264.264 453.869 263.262 455.236C262.259 456.581 261.758 458.312 261.758 460.432C261.758 462.642 262.236 464.431 263.193 465.798C264.173 467.165 265.449 467.849 267.021 467.849C268.298 467.849 269.528 467.211 270.713 465.935L277.993 474.685C274.598 477.351 270.827 478.684 266.68 478.684C261.621 478.684 257.371 476.986 253.931 473.591C250.49 470.196 248.77 465.992 248.77 460.979C248.77 455.988 250.501 451.773 253.965 448.332C257.451 444.891 261.724 443.171 266.782 443.171C271.727 443.171 275.874 444.857 279.224 448.229C282.596 451.579 284.282 455.715 284.282 460.637C284.282 461.138 284.237 461.936 284.146 463.029ZM308.174 443.581V457.253C307.285 456.752 306.476 456.501 305.747 456.501C303.423 456.501 302.261 458.278 302.261 461.833V478H289.478V459.372C289.478 454.45 290.822 450.531 293.511 447.614C296.2 444.675 299.788 443.205 304.277 443.205C305.28 443.205 306.579 443.33 308.174 443.581ZM344.302 444.743V478H330.425V431.345H348.506C356.436 431.345 362.645 433.145 367.134 436.745C372.466 441.052 375.132 446.896 375.132 454.279C375.132 461.343 372.853 467.108 368.296 471.574C363.739 476.04 357.871 478.273 350.693 478.273C349.85 478.273 348.472 478.228 346.558 478.137V464.431H348.779C356.868 464.431 360.913 461.047 360.913 454.279C360.913 447.922 356.937 444.743 348.984 444.743H344.302ZM414.233 463.029H394.854C394.557 462.049 394.409 461.149 394.409 460.329C394.409 459.19 394.614 458.073 395.024 456.979H401.519C401.063 454.45 399.639 453.186 397.246 453.186C395.651 453.186 394.352 453.869 393.35 455.236C392.347 456.581 391.846 458.312 391.846 460.432C391.846 462.642 392.324 464.431 393.281 465.798C394.261 467.165 395.537 467.849 397.109 467.849C398.385 467.849 399.616 467.211 400.801 465.935L408.081 474.685C404.686 477.351 400.915 478.684 396.768 478.684C391.709 478.684 387.459 476.986 384.019 473.591C380.578 470.196 378.857 465.992 378.857 460.979C378.857 455.988 380.589 451.773 384.053 448.332C387.539 444.891 391.812 443.171 396.87 443.171C401.815 443.171 405.962 444.857 409.312 448.229C412.684 451.579 414.37 455.715 414.37 460.637C414.37 461.138 414.325 461.936 414.233 463.029ZM445.166 443.923L429.238 479.333L413.516 443.923H425.718L429.341 453.117L433.306 443.923H445.166Z" fill="white"/>
<path d="M171.04 300.909V295.273C176.1 295.273 179.631 294.212 181.631 292.091C183.661 289.97 184.676 286.424 184.676 281.455V266.909C184.676 262.727 185.07 259.106 185.858 256.045C186.676 252.985 187.994 250.455 189.812 248.455C191.631 246.455 194.055 244.97 197.085 244C200.116 243.03 203.858 242.545 208.312 242.545V251.455C204.797 251.455 202.025 252 199.994 253.091C197.994 254.182 196.57 255.879 195.722 258.182C194.903 260.455 194.494 263.364 194.494 266.909V285.091C194.494 287.455 194.176 289.606 193.54 291.545C192.934 293.485 191.797 295.152 190.131 296.545C188.464 297.939 186.085 299.015 182.994 299.773C179.934 300.53 175.949 300.909 171.04 300.909ZM208.312 358.909C203.858 358.909 200.116 358.424 197.085 357.455C194.055 356.485 191.631 355 189.812 353C187.994 351 186.676 348.47 185.858 345.409C185.07 342.348 184.676 338.727 184.676 334.545V320C184.676 315.03 183.661 311.485 181.631 309.364C179.631 307.242 176.1 306.182 171.04 306.182V300.545C175.949 300.545 179.934 300.924 182.994 301.682C186.085 302.439 188.464 303.515 190.131 304.909C191.797 306.303 192.934 307.97 193.54 309.909C194.176 311.848 194.494 314 194.494 316.364V334.545C194.494 338.091 194.903 341 195.722 343.273C196.57 345.545 197.994 347.227 199.994 348.318C202.025 349.439 204.797 350 208.312 350V358.909ZM171.04 306.182V295.273H181.767V306.182H171.04Z" fill="white"/>
<path d="M327.949 300.545V306.182C322.888 306.182 319.343 307.242 317.312 309.364C315.312 311.485 314.312 315.03 314.312 320V334.545C314.312 338.727 313.903 342.348 313.085 345.409C312.297 348.47 310.994 351 309.176 353C307.358 355 304.934 356.485 301.903 357.455C298.873 358.424 295.131 358.909 290.676 358.909V350C294.191 350 296.949 349.439 298.949 348.318C300.979 347.227 302.403 345.545 303.222 343.273C304.07 341 304.494 338.091 304.494 334.545V316.364C304.494 314 304.797 311.848 305.403 309.909C306.04 307.97 307.191 306.303 308.858 304.909C310.525 303.515 312.888 302.439 315.949 301.682C319.04 300.924 323.04 300.545 327.949 300.545ZM290.676 242.545C295.131 242.545 298.873 243.03 301.903 244C304.934 244.97 307.358 246.455 309.176 248.455C310.994 250.455 312.297 252.985 313.085 256.045C313.903 259.106 314.312 262.727 314.312 266.909V281.455C314.312 286.424 315.312 289.97 317.312 292.091C319.343 294.212 322.888 295.273 327.949 295.273V300.909C323.04 300.909 319.04 300.53 315.949 299.773C312.888 299.015 310.525 297.939 308.858 296.545C307.191 295.152 306.04 293.485 305.403 291.545C304.797 289.606 304.494 287.455 304.494 285.091V266.909C304.494 263.364 304.07 260.455 303.222 258.182C302.403 255.879 300.979 254.182 298.949 253.091C296.949 252 294.191 251.455 290.676 251.455V242.545ZM327.949 295.273V306.182H317.222V295.273H327.949Z" fill="white"/>
<path d="M447.069 303.517C438.647 279.274 428.106 255.751 415.548 233.198C412.404 227.5 396.4 198.836 389.557 194.798H389.574C380.95 189.643 371.821 185.302 362.306 181.855L370.56 168.113C370.863 167.602 371.065 167.044 371.166 166.469C373.923 148.929 365.164 126.266 358.137 108.039C355.397 100.937 352.808 94.218 351.295 88.8714C344.974 66.4318 315.201 40.529 302.693 30.4577C289.446 19.7645 261.875 0.00633779 250.342 0.00633779H250.006C238.675 -0.408609 210.701 19.653 197.32 30.4577C184.812 40.5446 155.039 66.4313 148.718 88.8878C147.205 94.2343 144.616 100.953 141.876 108.056C134.849 126.266 126.09 148.946 128.847 166.486V166.47C128.931 167.044 129.133 167.603 129.435 168.114L137.69 181.871C128.175 185.318 119.046 189.659 110.439 194.815C103.613 198.852 87.5919 227.5 84.4481 233.214C71.9066 255.765 61.3659 279.289 52.9435 303.517C47.4967 319.557 49.6821 337.049 58.8947 351.459C68.1072 365.935 82.8845 376.436 100.116 380.762V387.545C100.402 394.663 106.689 400.217 114.17 399.994H386.295C393.793 400.217 400.064 394.647 400.333 387.545V380.634C417.464 376.197 432.123 365.664 441.235 351.204C450.347 336.856 452.466 319.462 447.069 303.517ZM375.266 367.099H125.197V238.623C125.214 236.948 126.643 235.591 128.425 235.559H372.025H372.008C373.79 235.591 375.219 236.948 375.253 238.623L375.266 367.099ZM283.88 226.191H216.131C216.064 219.168 216.165 211.428 216.434 202.203V202.187C226.453 208.571 236.943 214.221 247.854 219.088C249.216 219.711 250.796 219.711 252.158 219.088C263.069 214.221 273.559 208.571 283.579 202.187C283.848 211.428 283.947 219.168 283.88 226.191ZM250.005 209.656C213.995 192.85 190.274 174.975 183.952 140.407C206.798 130.225 232.067 122.58 250.005 121.606C267.943 122.58 293.21 130.209 316.059 140.391C309.737 174.976 286.017 192.851 250.005 209.656ZM174.759 144.713C177.734 160.386 185.451 174.893 196.95 186.498C200.026 189.61 203.321 192.547 206.784 195.276C206.331 207.629 206.179 217.444 206.247 226.19L175.683 226.174L139.925 166.612C150.499 157.946 162.217 150.573 174.759 144.699V144.713ZM293.748 226.187C293.832 217.441 293.647 207.625 293.21 195.273H293.227C296.707 192.543 300.002 189.607 303.079 186.479C314.578 174.892 322.294 160.369 325.27 144.694C337.811 150.567 349.512 157.941 360.086 166.607L324.294 226.169L293.748 226.187ZM151.153 111.276C153.977 103.966 156.65 97.0872 158.264 91.294C162.181 77.3772 178.606 57.9218 203.32 37.9098C226.923 18.7898 245.533 9.37345 249.468 9.37345H249.553C249.855 9.40537 250.158 9.40537 250.46 9.37345C254.26 9.22981 272.937 18.662 296.708 37.9098C321.421 57.9234 337.846 77.3788 341.764 91.294C343.378 97.0557 346.051 103.966 348.875 111.276C354.221 125.113 360.61 141.679 361.686 155.532C334.3 134.577 282.252 113.862 250.292 112.232C250.107 112.216 249.939 112.216 249.754 112.232C217.812 113.86 165.745 134.576 138.361 155.532C139.42 141.679 145.807 125.113 151.153 111.276ZM67.3462 346.622C59.5289 334.541 57.7132 319.793 62.3703 306.323C78.5428 257.437 110.383 206.734 115.728 202.713C124.218 197.638 133.229 193.409 142.626 190.105L164.296 226.206H128.438C121.209 226.222 115.341 231.792 115.325 238.655V367.102H105.036C102.615 367.102 100.547 368.778 100.161 371.044C86.4931 366.911 74.8442 358.241 67.3462 346.622ZM390.479 387.545C390.159 389.46 388.327 390.801 386.293 390.609H114.168C112.151 390.801 110.301 389.46 109.982 387.545V376.469H390.482L390.479 387.545ZM432.776 346.434C425.43 358.069 413.88 366.783 400.263 370.933C399.843 368.714 397.792 367.102 395.421 367.102H385.133V238.626C385.116 231.764 379.266 226.209 372.037 226.193H335.69L357.377 190.108C366.775 193.428 375.802 197.657 384.292 202.732C389.655 206.738 421.496 257.461 437.65 306.342C442.273 319.749 440.493 334.384 432.776 346.434ZM269.859 266.795L239.8 339.3C239.06 341.104 237.228 339.3 239.8 339.3" fill="white"/>
</svg>
